<mxfile host="app.diagrams.net" agent="Mozilla/5.0 (Windows NT 10.0; Win64; x64) AppleWebKit/537.36 (KHTML, like Gecko) Chrome/131.0.0.0 Safari/537.36" version="26.0.5">
  <diagram name="Page-1" id="ARpeOFKl9OsKkhkFpAH1">
    <mxGraphModel dx="1509" dy="1877" grid="1" gridSize="10" guides="1" tooltips="1" connect="1" arrows="1" fold="1" page="1" pageScale="1" pageWidth="850" pageHeight="1100" math="0" shadow="0">
      <root>
        <mxCell id="0" />
        <mxCell id="1" parent="0" />
        <mxCell id="6pw_1wc_7eydWXeOrxVZ-132" value="car" style="swimlane;fontStyle=0;childLayout=stackLayout;horizontal=1;startSize=26;horizontalStack=0;resizeParent=1;resizeParentMax=0;resizeLast=0;collapsible=1;marginBottom=0;align=center;fontSize=14;direction=east;absoluteArcSize=0;" parent="1" vertex="1">
          <mxGeometry x="920" y="-520" width="180" height="176" as="geometry">
            <mxRectangle x="80" y="40" width="60" height="30" as="alternateBounds" />
          </mxGeometry>
        </mxCell>
        <mxCell id="6pw_1wc_7eydWXeOrxVZ-133" value="int id" style="text;strokeColor=none;fillColor=none;spacingLeft=4;spacingRight=4;overflow=hidden;rotatable=0;points=[[0,0.5],[1,0.5]];portConstraint=eastwest;fontSize=12;whiteSpace=wrap;html=1;" parent="6pw_1wc_7eydWXeOrxVZ-132" vertex="1">
          <mxGeometry y="26" width="180" height="30" as="geometry" />
        </mxCell>
        <mxCell id="6pw_1wc_7eydWXeOrxVZ-134" value="String name" style="text;strokeColor=none;fillColor=none;spacingLeft=4;spacingRight=4;overflow=hidden;rotatable=0;points=[[0,0.5],[1,0.5]];portConstraint=eastwest;fontSize=12;whiteSpace=wrap;html=1;" parent="6pw_1wc_7eydWXeOrxVZ-132" vertex="1">
          <mxGeometry y="56" width="180" height="30" as="geometry" />
        </mxCell>
        <mxCell id="6pw_1wc_7eydWXeOrxVZ-135" value="String ModelName" style="text;strokeColor=none;fillColor=none;spacingLeft=4;spacingRight=4;overflow=hidden;rotatable=0;points=[[0,0.5],[1,0.5]];portConstraint=eastwest;fontSize=12;whiteSpace=wrap;html=1;" parent="6pw_1wc_7eydWXeOrxVZ-132" vertex="1">
          <mxGeometry y="86" width="180" height="30" as="geometry" />
        </mxCell>
        <mxCell id="6pw_1wc_7eydWXeOrxVZ-143" value="decimal Mileage" style="text;strokeColor=none;fillColor=none;spacingLeft=4;spacingRight=4;overflow=hidden;rotatable=0;points=[[0,0.5],[1,0.5]];portConstraint=eastwest;fontSize=12;whiteSpace=wrap;html=1;" parent="6pw_1wc_7eydWXeOrxVZ-132" vertex="1">
          <mxGeometry y="116" width="180" height="30" as="geometry" />
        </mxCell>
        <mxCell id="6pw_1wc_7eydWXeOrxVZ-145" value="decimal Engine" style="text;strokeColor=none;fillColor=none;spacingLeft=4;spacingRight=4;overflow=hidden;rotatable=0;points=[[0,0.5],[1,0.5]];portConstraint=eastwest;fontSize=12;whiteSpace=wrap;html=1;" parent="6pw_1wc_7eydWXeOrxVZ-132" vertex="1">
          <mxGeometry y="146" width="180" height="30" as="geometry" />
        </mxCell>
        <mxCell id="6pw_1wc_7eydWXeOrxVZ-146" value="Category" style="swimlane;fontStyle=0;childLayout=stackLayout;horizontal=1;startSize=26;horizontalStack=0;resizeParent=1;resizeParentMax=0;resizeLast=0;collapsible=1;marginBottom=0;align=center;fontSize=14;direction=east;absoluteArcSize=0;" parent="1" vertex="1">
          <mxGeometry x="570" y="-275" width="180" height="56" as="geometry">
            <mxRectangle x="80" y="40" width="60" height="30" as="alternateBounds" />
          </mxGeometry>
        </mxCell>
        <mxCell id="6pw_1wc_7eydWXeOrxVZ-148" value="String CaegoryName" style="text;strokeColor=none;fillColor=none;spacingLeft=4;spacingRight=4;overflow=hidden;rotatable=0;points=[[0,0.5],[1,0.5]];portConstraint=eastwest;fontSize=12;whiteSpace=wrap;html=1;" parent="6pw_1wc_7eydWXeOrxVZ-146" vertex="1">
          <mxGeometry y="26" width="180" height="30" as="geometry" />
        </mxCell>
        <mxCell id="6pw_1wc_7eydWXeOrxVZ-153" value="Client" style="swimlane;fontStyle=0;childLayout=stackLayout;horizontal=1;startSize=26;horizontalStack=0;resizeParent=1;resizeParentMax=0;resizeLast=0;collapsible=1;marginBottom=0;align=center;fontSize=14;direction=east;absoluteArcSize=0;" parent="1" vertex="1">
          <mxGeometry x="320" y="-680" width="180" height="236" as="geometry">
            <mxRectangle x="80" y="40" width="60" height="30" as="alternateBounds" />
          </mxGeometry>
        </mxCell>
        <mxCell id="6pw_1wc_7eydWXeOrxVZ-154" value="int id" style="text;strokeColor=none;fillColor=none;spacingLeft=4;spacingRight=4;overflow=hidden;rotatable=0;points=[[0,0.5],[1,0.5]];portConstraint=eastwest;fontSize=12;whiteSpace=wrap;html=1;" parent="6pw_1wc_7eydWXeOrxVZ-153" vertex="1">
          <mxGeometry y="26" width="180" height="30" as="geometry" />
        </mxCell>
        <mxCell id="6pw_1wc_7eydWXeOrxVZ-155" value="String FullName" style="text;strokeColor=none;fillColor=none;spacingLeft=4;spacingRight=4;overflow=hidden;rotatable=0;points=[[0,0.5],[1,0.5]];portConstraint=eastwest;fontSize=12;whiteSpace=wrap;html=1;" parent="6pw_1wc_7eydWXeOrxVZ-153" vertex="1">
          <mxGeometry y="56" width="180" height="30" as="geometry" />
        </mxCell>
        <mxCell id="6pw_1wc_7eydWXeOrxVZ-156" value="String Email" style="text;strokeColor=none;fillColor=none;spacingLeft=4;spacingRight=4;overflow=hidden;rotatable=0;points=[[0,0.5],[1,0.5]];portConstraint=eastwest;fontSize=12;whiteSpace=wrap;html=1;" parent="6pw_1wc_7eydWXeOrxVZ-153" vertex="1">
          <mxGeometry y="86" width="180" height="30" as="geometry" />
        </mxCell>
        <mxCell id="6pw_1wc_7eydWXeOrxVZ-157" value="String Pasword" style="text;strokeColor=none;fillColor=none;spacingLeft=4;spacingRight=4;overflow=hidden;rotatable=0;points=[[0,0.5],[1,0.5]];portConstraint=eastwest;fontSize=12;whiteSpace=wrap;html=1;" parent="6pw_1wc_7eydWXeOrxVZ-153" vertex="1">
          <mxGeometry y="116" width="180" height="30" as="geometry" />
        </mxCell>
        <mxCell id="6pw_1wc_7eydWXeOrxVZ-158" value="String Address" style="text;strokeColor=none;fillColor=none;spacingLeft=4;spacingRight=4;overflow=hidden;rotatable=0;points=[[0,0.5],[1,0.5]];portConstraint=eastwest;fontSize=12;whiteSpace=wrap;html=1;" parent="6pw_1wc_7eydWXeOrxVZ-153" vertex="1">
          <mxGeometry y="146" width="180" height="30" as="geometry" />
        </mxCell>
        <mxCell id="6pw_1wc_7eydWXeOrxVZ-159" value="String Phone" style="text;strokeColor=none;fillColor=none;spacingLeft=4;spacingRight=4;overflow=hidden;rotatable=0;points=[[0,0.5],[1,0.5]];portConstraint=eastwest;fontSize=12;whiteSpace=wrap;html=1;" parent="6pw_1wc_7eydWXeOrxVZ-153" vertex="1">
          <mxGeometry y="176" width="180" height="30" as="geometry" />
        </mxCell>
        <mxCell id="6pw_1wc_7eydWXeOrxVZ-160" value="String Role" style="text;strokeColor=none;fillColor=none;spacingLeft=4;spacingRight=4;overflow=hidden;rotatable=0;points=[[0,0.5],[1,0.5]];portConstraint=eastwest;fontSize=12;whiteSpace=wrap;html=1;" parent="6pw_1wc_7eydWXeOrxVZ-153" vertex="1">
          <mxGeometry y="206" width="180" height="30" as="geometry" />
        </mxCell>
        <mxCell id="6pw_1wc_7eydWXeOrxVZ-162" value="Message" style="swimlane;fontStyle=0;childLayout=stackLayout;horizontal=1;startSize=26;horizontalStack=0;resizeParent=1;resizeParentMax=0;resizeLast=0;collapsible=1;marginBottom=0;align=center;fontSize=14;direction=east;absoluteArcSize=0;" parent="1" vertex="1">
          <mxGeometry x="40" y="80" width="180" height="206" as="geometry">
            <mxRectangle x="80" y="40" width="60" height="30" as="alternateBounds" />
          </mxGeometry>
        </mxCell>
        <mxCell id="6pw_1wc_7eydWXeOrxVZ-163" value="int id" style="text;strokeColor=none;fillColor=none;spacingLeft=4;spacingRight=4;overflow=hidden;rotatable=0;points=[[0,0.5],[1,0.5]];portConstraint=eastwest;fontSize=12;whiteSpace=wrap;html=1;" parent="6pw_1wc_7eydWXeOrxVZ-162" vertex="1">
          <mxGeometry y="26" width="180" height="30" as="geometry" />
        </mxCell>
        <mxCell id="6pw_1wc_7eydWXeOrxVZ-164" value="String MessageTxt" style="text;strokeColor=none;fillColor=none;spacingLeft=4;spacingRight=4;overflow=hidden;rotatable=0;points=[[0,0.5],[1,0.5]];portConstraint=eastwest;fontSize=12;whiteSpace=wrap;html=1;" parent="6pw_1wc_7eydWXeOrxVZ-162" vertex="1">
          <mxGeometry y="56" width="180" height="30" as="geometry" />
        </mxCell>
        <mxCell id="6pw_1wc_7eydWXeOrxVZ-165" value="int SenderId" style="text;strokeColor=none;fillColor=none;spacingLeft=4;spacingRight=4;overflow=hidden;rotatable=0;points=[[0,0.5],[1,0.5]];portConstraint=eastwest;fontSize=12;whiteSpace=wrap;html=1;" parent="6pw_1wc_7eydWXeOrxVZ-162" vertex="1">
          <mxGeometry y="86" width="180" height="30" as="geometry" />
        </mxCell>
        <mxCell id="6pw_1wc_7eydWXeOrxVZ-166" value="int ReciverId" style="text;strokeColor=none;fillColor=none;spacingLeft=4;spacingRight=4;overflow=hidden;rotatable=0;points=[[0,0.5],[1,0.5]];portConstraint=eastwest;fontSize=12;whiteSpace=wrap;html=1;" parent="6pw_1wc_7eydWXeOrxVZ-162" vertex="1">
          <mxGeometry y="116" width="180" height="30" as="geometry" />
        </mxCell>
        <mxCell id="6pw_1wc_7eydWXeOrxVZ-167" value="Datetime Sent" style="text;strokeColor=none;fillColor=none;spacingLeft=4;spacingRight=4;overflow=hidden;rotatable=0;points=[[0,0.5],[1,0.5]];portConstraint=eastwest;fontSize=12;whiteSpace=wrap;html=1;" parent="6pw_1wc_7eydWXeOrxVZ-162" vertex="1">
          <mxGeometry y="146" width="180" height="30" as="geometry" />
        </mxCell>
        <mxCell id="6pw_1wc_7eydWXeOrxVZ-168" value="Datetime Seen" style="text;strokeColor=none;fillColor=none;spacingLeft=4;spacingRight=4;overflow=hidden;rotatable=0;points=[[0,0.5],[1,0.5]];portConstraint=eastwest;fontSize=12;whiteSpace=wrap;html=1;" parent="6pw_1wc_7eydWXeOrxVZ-162" vertex="1">
          <mxGeometry y="176" width="180" height="30" as="geometry" />
        </mxCell>
        <mxCell id="6pw_1wc_7eydWXeOrxVZ-169" value="Model" style="swimlane;fontStyle=0;childLayout=stackLayout;horizontal=1;startSize=26;horizontalStack=0;resizeParent=1;resizeParentMax=0;resizeLast=0;collapsible=1;marginBottom=0;align=center;fontSize=14;direction=east;absoluteArcSize=0;" parent="1" vertex="1">
          <mxGeometry x="920" y="-680" width="180" height="56" as="geometry">
            <mxRectangle x="80" y="40" width="60" height="30" as="alternateBounds" />
          </mxGeometry>
        </mxCell>
        <mxCell id="6pw_1wc_7eydWXeOrxVZ-171" value="String ModelName" style="text;strokeColor=none;fillColor=none;spacingLeft=4;spacingRight=4;overflow=hidden;rotatable=0;points=[[0,0.5],[1,0.5]];portConstraint=eastwest;fontSize=12;whiteSpace=wrap;html=1;" parent="6pw_1wc_7eydWXeOrxVZ-169" vertex="1">
          <mxGeometry y="26" width="180" height="30" as="geometry" />
        </mxCell>
        <mxCell id="6pw_1wc_7eydWXeOrxVZ-176" value="Notification" style="swimlane;fontStyle=0;childLayout=stackLayout;horizontal=1;startSize=26;horizontalStack=0;resizeParent=1;resizeParentMax=0;resizeLast=0;collapsible=1;marginBottom=0;align=center;fontSize=14;direction=east;absoluteArcSize=0;" parent="1" vertex="1">
          <mxGeometry x="40" y="-690" width="180" height="146" as="geometry">
            <mxRectangle x="80" y="40" width="60" height="30" as="alternateBounds" />
          </mxGeometry>
        </mxCell>
        <mxCell id="6pw_1wc_7eydWXeOrxVZ-177" value="int id" style="text;strokeColor=none;fillColor=none;spacingLeft=4;spacingRight=4;overflow=hidden;rotatable=0;points=[[0,0.5],[1,0.5]];portConstraint=eastwest;fontSize=12;whiteSpace=wrap;html=1;" parent="6pw_1wc_7eydWXeOrxVZ-176" vertex="1">
          <mxGeometry y="26" width="180" height="30" as="geometry" />
        </mxCell>
        <mxCell id="6pw_1wc_7eydWXeOrxVZ-178" value="int ClientId" style="text;strokeColor=none;fillColor=none;spacingLeft=4;spacingRight=4;overflow=hidden;rotatable=0;points=[[0,0.5],[1,0.5]];portConstraint=eastwest;fontSize=12;whiteSpace=wrap;html=1;" parent="6pw_1wc_7eydWXeOrxVZ-176" vertex="1">
          <mxGeometry y="56" width="180" height="30" as="geometry" />
        </mxCell>
        <mxCell id="6pw_1wc_7eydWXeOrxVZ-179" value="String Type" style="text;strokeColor=none;fillColor=none;spacingLeft=4;spacingRight=4;overflow=hidden;rotatable=0;points=[[0,0.5],[1,0.5]];portConstraint=eastwest;fontSize=12;whiteSpace=wrap;html=1;" parent="6pw_1wc_7eydWXeOrxVZ-176" vertex="1">
          <mxGeometry y="86" width="180" height="30" as="geometry" />
        </mxCell>
        <mxCell id="6pw_1wc_7eydWXeOrxVZ-180" value="Client Client" style="text;strokeColor=none;fillColor=none;spacingLeft=4;spacingRight=4;overflow=hidden;rotatable=0;points=[[0,0.5],[1,0.5]];portConstraint=eastwest;fontSize=12;whiteSpace=wrap;html=1;" parent="6pw_1wc_7eydWXeOrxVZ-176" vertex="1">
          <mxGeometry y="116" width="180" height="30" as="geometry" />
        </mxCell>
        <mxCell id="6pw_1wc_7eydWXeOrxVZ-182" value="NotificationAdmins" style="swimlane;fontStyle=0;childLayout=stackLayout;horizontal=1;startSize=26;horizontalStack=0;resizeParent=1;resizeParentMax=0;resizeLast=0;collapsible=1;marginBottom=0;align=center;fontSize=14;direction=east;absoluteArcSize=0;" parent="1" vertex="1">
          <mxGeometry x="40" y="330" width="180" height="176" as="geometry">
            <mxRectangle x="80" y="40" width="60" height="30" as="alternateBounds" />
          </mxGeometry>
        </mxCell>
        <mxCell id="6pw_1wc_7eydWXeOrxVZ-183" value="int id" style="text;strokeColor=none;fillColor=none;spacingLeft=4;spacingRight=4;overflow=hidden;rotatable=0;points=[[0,0.5],[1,0.5]];portConstraint=eastwest;fontSize=12;whiteSpace=wrap;html=1;" parent="6pw_1wc_7eydWXeOrxVZ-182" vertex="1">
          <mxGeometry y="26" width="180" height="30" as="geometry" />
        </mxCell>
        <mxCell id="6pw_1wc_7eydWXeOrxVZ-184" value="int NotificationId" style="text;strokeColor=none;fillColor=none;spacingLeft=4;spacingRight=4;overflow=hidden;rotatable=0;points=[[0,0.5],[1,0.5]];portConstraint=eastwest;fontSize=12;whiteSpace=wrap;html=1;" parent="6pw_1wc_7eydWXeOrxVZ-182" vertex="1">
          <mxGeometry y="56" width="180" height="30" as="geometry" />
        </mxCell>
        <mxCell id="6pw_1wc_7eydWXeOrxVZ-185" value="int AdminId" style="text;strokeColor=none;fillColor=none;spacingLeft=4;spacingRight=4;overflow=hidden;rotatable=0;points=[[0,0.5],[1,0.5]];portConstraint=eastwest;fontSize=12;whiteSpace=wrap;html=1;" parent="6pw_1wc_7eydWXeOrxVZ-182" vertex="1">
          <mxGeometry y="86" width="180" height="30" as="geometry" />
        </mxCell>
        <mxCell id="6pw_1wc_7eydWXeOrxVZ-186" value="Notification Notification" style="text;strokeColor=none;fillColor=none;spacingLeft=4;spacingRight=4;overflow=hidden;rotatable=0;points=[[0,0.5],[1,0.5]];portConstraint=eastwest;fontSize=12;whiteSpace=wrap;html=1;" parent="6pw_1wc_7eydWXeOrxVZ-182" vertex="1">
          <mxGeometry y="116" width="180" height="30" as="geometry" />
        </mxCell>
        <mxCell id="6pw_1wc_7eydWXeOrxVZ-187" value="Client Admin" style="text;strokeColor=none;fillColor=none;spacingLeft=4;spacingRight=4;overflow=hidden;rotatable=0;points=[[0,0.5],[1,0.5]];portConstraint=eastwest;fontSize=12;whiteSpace=wrap;html=1;" parent="6pw_1wc_7eydWXeOrxVZ-182" vertex="1">
          <mxGeometry y="146" width="180" height="30" as="geometry" />
        </mxCell>
        <mxCell id="6pw_1wc_7eydWXeOrxVZ-189" value="Order" style="swimlane;fontStyle=0;childLayout=stackLayout;horizontal=1;startSize=26;horizontalStack=0;resizeParent=1;resizeParentMax=0;resizeLast=0;collapsible=1;marginBottom=0;align=center;fontSize=14;direction=east;absoluteArcSize=0;" parent="1" vertex="1">
          <mxGeometry x="40" y="-390" width="180" height="146" as="geometry">
            <mxRectangle x="80" y="40" width="60" height="30" as="alternateBounds" />
          </mxGeometry>
        </mxCell>
        <mxCell id="6pw_1wc_7eydWXeOrxVZ-190" value="int OrderId" style="text;strokeColor=none;fillColor=none;spacingLeft=4;spacingRight=4;overflow=hidden;rotatable=0;points=[[0,0.5],[1,0.5]];portConstraint=eastwest;fontSize=12;whiteSpace=wrap;html=1;" parent="6pw_1wc_7eydWXeOrxVZ-189" vertex="1">
          <mxGeometry y="26" width="180" height="30" as="geometry" />
        </mxCell>
        <mxCell id="6pw_1wc_7eydWXeOrxVZ-191" value="DateTime SetDate" style="text;strokeColor=none;fillColor=none;spacingLeft=4;spacingRight=4;overflow=hidden;rotatable=0;points=[[0,0.5],[1,0.5]];portConstraint=eastwest;fontSize=12;whiteSpace=wrap;html=1;" parent="6pw_1wc_7eydWXeOrxVZ-189" vertex="1">
          <mxGeometry y="56" width="180" height="30" as="geometry" />
        </mxCell>
        <mxCell id="6pw_1wc_7eydWXeOrxVZ-192" value="DateTime ArrivalDate" style="text;strokeColor=none;fillColor=none;spacingLeft=4;spacingRight=4;overflow=hidden;rotatable=0;points=[[0,0.5],[1,0.5]];portConstraint=eastwest;fontSize=12;whiteSpace=wrap;html=1;" parent="6pw_1wc_7eydWXeOrxVZ-189" vertex="1">
          <mxGeometry y="86" width="180" height="30" as="geometry" />
        </mxCell>
        <mxCell id="6pw_1wc_7eydWXeOrxVZ-193" value="int ClientId" style="text;strokeColor=none;fillColor=none;spacingLeft=4;spacingRight=4;overflow=hidden;rotatable=0;points=[[0,0.5],[1,0.5]];portConstraint=eastwest;fontSize=12;whiteSpace=wrap;html=1;" parent="6pw_1wc_7eydWXeOrxVZ-189" vertex="1">
          <mxGeometry y="116" width="180" height="30" as="geometry" />
        </mxCell>
        <mxCell id="6pw_1wc_7eydWXeOrxVZ-195" value="OrderDetail" style="swimlane;fontStyle=0;childLayout=stackLayout;horizontal=1;startSize=26;horizontalStack=0;resizeParent=1;resizeParentMax=0;resizeLast=0;collapsible=1;marginBottom=0;align=center;fontSize=14;direction=east;absoluteArcSize=0;" parent="1" vertex="1">
          <mxGeometry x="40" y="-160" width="180" height="116" as="geometry">
            <mxRectangle x="80" y="40" width="60" height="30" as="alternateBounds" />
          </mxGeometry>
        </mxCell>
        <mxCell id="6pw_1wc_7eydWXeOrxVZ-196" value="int OrderId" style="text;strokeColor=none;fillColor=none;spacingLeft=4;spacingRight=4;overflow=hidden;rotatable=0;points=[[0,0.5],[1,0.5]];portConstraint=eastwest;fontSize=12;whiteSpace=wrap;html=1;" parent="6pw_1wc_7eydWXeOrxVZ-195" vertex="1">
          <mxGeometry y="26" width="180" height="30" as="geometry" />
        </mxCell>
        <mxCell id="6pw_1wc_7eydWXeOrxVZ-197" value="int ProductId" style="text;strokeColor=none;fillColor=none;spacingLeft=4;spacingRight=4;overflow=hidden;rotatable=0;points=[[0,0.5],[1,0.5]];portConstraint=eastwest;fontSize=12;whiteSpace=wrap;html=1;" parent="6pw_1wc_7eydWXeOrxVZ-195" vertex="1">
          <mxGeometry y="56" width="180" height="30" as="geometry" />
        </mxCell>
        <mxCell id="6pw_1wc_7eydWXeOrxVZ-198" value="int Quantity" style="text;strokeColor=none;fillColor=none;spacingLeft=4;spacingRight=4;overflow=hidden;rotatable=0;points=[[0,0.5],[1,0.5]];portConstraint=eastwest;fontSize=12;whiteSpace=wrap;html=1;" parent="6pw_1wc_7eydWXeOrxVZ-195" vertex="1">
          <mxGeometry y="86" width="180" height="30" as="geometry" />
        </mxCell>
        <mxCell id="6pw_1wc_7eydWXeOrxVZ-200" value="Product" style="swimlane;fontStyle=0;childLayout=stackLayout;horizontal=1;startSize=26;horizontalStack=0;resizeParent=1;resizeParentMax=0;resizeLast=0;collapsible=1;marginBottom=0;align=center;fontSize=14;direction=east;absoluteArcSize=0;" parent="1" vertex="1">
          <mxGeometry x="320" y="-320" width="180" height="146" as="geometry">
            <mxRectangle x="80" y="40" width="60" height="30" as="alternateBounds" />
          </mxGeometry>
        </mxCell>
        <mxCell id="6pw_1wc_7eydWXeOrxVZ-201" value="int Id" style="text;strokeColor=none;fillColor=none;spacingLeft=4;spacingRight=4;overflow=hidden;rotatable=0;points=[[0,0.5],[1,0.5]];portConstraint=eastwest;fontSize=12;whiteSpace=wrap;html=1;" parent="6pw_1wc_7eydWXeOrxVZ-200" vertex="1">
          <mxGeometry y="26" width="180" height="30" as="geometry" />
        </mxCell>
        <mxCell id="6pw_1wc_7eydWXeOrxVZ-202" value="String Name" style="text;strokeColor=none;fillColor=none;spacingLeft=4;spacingRight=4;overflow=hidden;rotatable=0;points=[[0,0.5],[1,0.5]];portConstraint=eastwest;fontSize=12;whiteSpace=wrap;html=1;" parent="6pw_1wc_7eydWXeOrxVZ-200" vertex="1">
          <mxGeometry y="56" width="180" height="30" as="geometry" />
        </mxCell>
        <mxCell id="6pw_1wc_7eydWXeOrxVZ-203" value="String CategoryName" style="text;strokeColor=none;fillColor=none;spacingLeft=4;spacingRight=4;overflow=hidden;rotatable=0;points=[[0,0.5],[1,0.5]];portConstraint=eastwest;fontSize=12;whiteSpace=wrap;html=1;" parent="6pw_1wc_7eydWXeOrxVZ-200" vertex="1">
          <mxGeometry y="86" width="180" height="30" as="geometry" />
        </mxCell>
        <mxCell id="6pw_1wc_7eydWXeOrxVZ-204" value="DecimalPrice" style="text;strokeColor=none;fillColor=none;spacingLeft=4;spacingRight=4;overflow=hidden;rotatable=0;points=[[0,0.5],[1,0.5]];portConstraint=eastwest;fontSize=12;whiteSpace=wrap;html=1;" parent="6pw_1wc_7eydWXeOrxVZ-200" vertex="1">
          <mxGeometry y="116" width="180" height="30" as="geometry" />
        </mxCell>
        <mxCell id="6pw_1wc_7eydWXeOrxVZ-205" value="RefreshToken" style="swimlane;fontStyle=0;childLayout=stackLayout;horizontal=1;startSize=26;horizontalStack=0;resizeParent=1;resizeParentMax=0;resizeLast=0;collapsible=1;marginBottom=0;align=center;fontSize=14;direction=east;absoluteArcSize=0;" parent="1" vertex="1">
          <mxGeometry x="270" y="330" width="180" height="116" as="geometry">
            <mxRectangle x="80" y="40" width="60" height="30" as="alternateBounds" />
          </mxGeometry>
        </mxCell>
        <mxCell id="6pw_1wc_7eydWXeOrxVZ-206" value="int ClientId" style="text;strokeColor=none;fillColor=none;spacingLeft=4;spacingRight=4;overflow=hidden;rotatable=0;points=[[0,0.5],[1,0.5]];portConstraint=eastwest;fontSize=12;whiteSpace=wrap;html=1;" parent="6pw_1wc_7eydWXeOrxVZ-205" vertex="1">
          <mxGeometry y="26" width="180" height="30" as="geometry" />
        </mxCell>
        <mxCell id="6pw_1wc_7eydWXeOrxVZ-207" value="Guid Token" style="text;strokeColor=none;fillColor=none;spacingLeft=4;spacingRight=4;overflow=hidden;rotatable=0;points=[[0,0.5],[1,0.5]];portConstraint=eastwest;fontSize=12;whiteSpace=wrap;html=1;" parent="6pw_1wc_7eydWXeOrxVZ-205" vertex="1">
          <mxGeometry y="56" width="180" height="30" as="geometry" />
        </mxCell>
        <mxCell id="6pw_1wc_7eydWXeOrxVZ-208" value="DataTimw Expires" style="text;strokeColor=none;fillColor=none;spacingLeft=4;spacingRight=4;overflow=hidden;rotatable=0;points=[[0,0.5],[1,0.5]];portConstraint=eastwest;fontSize=12;whiteSpace=wrap;html=1;" parent="6pw_1wc_7eydWXeOrxVZ-205" vertex="1">
          <mxGeometry y="86" width="180" height="30" as="geometry" />
        </mxCell>
        <mxCell id="6pw_1wc_7eydWXeOrxVZ-210" value="Rent" style="swimlane;fontStyle=0;childLayout=stackLayout;horizontal=1;startSize=26;horizontalStack=0;resizeParent=1;resizeParentMax=0;resizeLast=0;collapsible=1;marginBottom=0;align=center;fontSize=14;direction=east;absoluteArcSize=0;" parent="1" vertex="1">
          <mxGeometry x="610" y="-580" width="180" height="206" as="geometry">
            <mxRectangle x="80" y="40" width="60" height="30" as="alternateBounds" />
          </mxGeometry>
        </mxCell>
        <mxCell id="6pw_1wc_7eydWXeOrxVZ-211" value="int RentalId" style="text;strokeColor=none;fillColor=none;spacingLeft=4;spacingRight=4;overflow=hidden;rotatable=0;points=[[0,0.5],[1,0.5]];portConstraint=eastwest;fontSize=12;whiteSpace=wrap;html=1;" parent="6pw_1wc_7eydWXeOrxVZ-210" vertex="1">
          <mxGeometry y="26" width="180" height="30" as="geometry" />
        </mxCell>
        <mxCell id="6pw_1wc_7eydWXeOrxVZ-212" value="DataTime StartDate" style="text;strokeColor=none;fillColor=none;spacingLeft=4;spacingRight=4;overflow=hidden;rotatable=0;points=[[0,0.5],[1,0.5]];portConstraint=eastwest;fontSize=12;whiteSpace=wrap;html=1;" parent="6pw_1wc_7eydWXeOrxVZ-210" vertex="1">
          <mxGeometry y="56" width="180" height="30" as="geometry" />
        </mxCell>
        <mxCell id="6pw_1wc_7eydWXeOrxVZ-213" value="int Days" style="text;strokeColor=none;fillColor=none;spacingLeft=4;spacingRight=4;overflow=hidden;rotatable=0;points=[[0,0.5],[1,0.5]];portConstraint=eastwest;fontSize=12;whiteSpace=wrap;html=1;" parent="6pw_1wc_7eydWXeOrxVZ-210" vertex="1">
          <mxGeometry y="86" width="180" height="30" as="geometry" />
        </mxCell>
        <mxCell id="6pw_1wc_7eydWXeOrxVZ-214" value="int CarId" style="text;strokeColor=none;fillColor=none;spacingLeft=4;spacingRight=4;overflow=hidden;rotatable=0;points=[[0,0.5],[1,0.5]];portConstraint=eastwest;fontSize=12;whiteSpace=wrap;html=1;" parent="6pw_1wc_7eydWXeOrxVZ-210" vertex="1">
          <mxGeometry y="116" width="180" height="30" as="geometry" />
        </mxCell>
        <mxCell id="6pw_1wc_7eydWXeOrxVZ-215" value="int ClientId" style="text;strokeColor=none;fillColor=none;spacingLeft=4;spacingRight=4;overflow=hidden;rotatable=0;points=[[0,0.5],[1,0.5]];portConstraint=eastwest;fontSize=12;whiteSpace=wrap;html=1;" parent="6pw_1wc_7eydWXeOrxVZ-210" vertex="1">
          <mxGeometry y="146" width="180" height="30" as="geometry" />
        </mxCell>
        <mxCell id="6pw_1wc_7eydWXeOrxVZ-216" value="String ClientName" style="text;strokeColor=none;fillColor=none;spacingLeft=4;spacingRight=4;overflow=hidden;rotatable=0;points=[[0,0.5],[1,0.5]];portConstraint=eastwest;fontSize=12;whiteSpace=wrap;html=1;" parent="6pw_1wc_7eydWXeOrxVZ-210" vertex="1">
          <mxGeometry y="176" width="180" height="30" as="geometry" />
        </mxCell>
        <mxCell id="6pw_1wc_7eydWXeOrxVZ-217" value="ReservationLog" style="swimlane;fontStyle=0;childLayout=stackLayout;horizontal=1;startSize=26;horizontalStack=0;resizeParent=1;resizeParentMax=0;resizeLast=0;collapsible=1;marginBottom=0;align=center;fontSize=14;direction=east;absoluteArcSize=0;" parent="1" vertex="1">
          <mxGeometry x="270" y="80" width="180" height="206" as="geometry">
            <mxRectangle x="80" y="40" width="60" height="30" as="alternateBounds" />
          </mxGeometry>
        </mxCell>
        <mxCell id="6pw_1wc_7eydWXeOrxVZ-218" value="int Id" style="text;strokeColor=none;fillColor=none;spacingLeft=4;spacingRight=4;overflow=hidden;rotatable=0;points=[[0,0.5],[1,0.5]];portConstraint=eastwest;fontSize=12;whiteSpace=wrap;html=1;" parent="6pw_1wc_7eydWXeOrxVZ-217" vertex="1">
          <mxGeometry y="26" width="180" height="30" as="geometry" />
        </mxCell>
        <mxCell id="6pw_1wc_7eydWXeOrxVZ-219" value="String RestaurantName" style="text;strokeColor=none;fillColor=none;spacingLeft=4;spacingRight=4;overflow=hidden;rotatable=0;points=[[0,0.5],[1,0.5]];portConstraint=eastwest;fontSize=12;whiteSpace=wrap;html=1;" parent="6pw_1wc_7eydWXeOrxVZ-217" vertex="1">
          <mxGeometry y="56" width="180" height="30" as="geometry" />
        </mxCell>
        <mxCell id="6pw_1wc_7eydWXeOrxVZ-220" value="String UserName" style="text;strokeColor=none;fillColor=none;spacingLeft=4;spacingRight=4;overflow=hidden;rotatable=0;points=[[0,0.5],[1,0.5]];portConstraint=eastwest;fontSize=12;whiteSpace=wrap;html=1;" parent="6pw_1wc_7eydWXeOrxVZ-217" vertex="1">
          <mxGeometry y="86" width="180" height="30" as="geometry" />
        </mxCell>
        <mxCell id="6pw_1wc_7eydWXeOrxVZ-221" value="String UserEmail" style="text;strokeColor=none;fillColor=none;spacingLeft=4;spacingRight=4;overflow=hidden;rotatable=0;points=[[0,0.5],[1,0.5]];portConstraint=eastwest;fontSize=12;whiteSpace=wrap;html=1;" parent="6pw_1wc_7eydWXeOrxVZ-217" vertex="1">
          <mxGeometry y="116" width="180" height="30" as="geometry" />
        </mxCell>
        <mxCell id="6pw_1wc_7eydWXeOrxVZ-222" value="DateTime ReservationDateTime" style="text;strokeColor=none;fillColor=none;spacingLeft=4;spacingRight=4;overflow=hidden;rotatable=0;points=[[0,0.5],[1,0.5]];portConstraint=eastwest;fontSize=12;whiteSpace=wrap;html=1;" parent="6pw_1wc_7eydWXeOrxVZ-217" vertex="1">
          <mxGeometry y="146" width="180" height="30" as="geometry" />
        </mxCell>
        <mxCell id="6pw_1wc_7eydWXeOrxVZ-224" value="-" style="text;strokeColor=none;fillColor=none;spacingLeft=4;spacingRight=4;overflow=hidden;rotatable=0;points=[[0,0.5],[1,0.5]];portConstraint=eastwest;fontSize=12;whiteSpace=wrap;html=1;" parent="6pw_1wc_7eydWXeOrxVZ-217" vertex="1">
          <mxGeometry y="176" width="180" height="30" as="geometry" />
        </mxCell>
        <mxCell id="6pw_1wc_7eydWXeOrxVZ-225" value="Restaurant" style="swimlane;fontStyle=0;childLayout=stackLayout;horizontal=1;startSize=26;horizontalStack=0;resizeParent=1;resizeParentMax=0;resizeLast=0;collapsible=1;marginBottom=0;align=center;fontSize=14;direction=east;absoluteArcSize=0;" parent="1" vertex="1">
          <mxGeometry x="490" y="80" width="180" height="176" as="geometry">
            <mxRectangle x="80" y="40" width="60" height="30" as="alternateBounds" />
          </mxGeometry>
        </mxCell>
        <mxCell id="6pw_1wc_7eydWXeOrxVZ-226" value="int Id" style="text;strokeColor=none;fillColor=none;spacingLeft=4;spacingRight=4;overflow=hidden;rotatable=0;points=[[0,0.5],[1,0.5]];portConstraint=eastwest;fontSize=12;whiteSpace=wrap;html=1;" parent="6pw_1wc_7eydWXeOrxVZ-225" vertex="1">
          <mxGeometry y="26" width="180" height="30" as="geometry" />
        </mxCell>
        <mxCell id="6pw_1wc_7eydWXeOrxVZ-227" value="String Name" style="text;strokeColor=none;fillColor=none;spacingLeft=4;spacingRight=4;overflow=hidden;rotatable=0;points=[[0,0.5],[1,0.5]];portConstraint=eastwest;fontSize=12;whiteSpace=wrap;html=1;" parent="6pw_1wc_7eydWXeOrxVZ-225" vertex="1">
          <mxGeometry y="56" width="180" height="30" as="geometry" />
        </mxCell>
        <mxCell id="6pw_1wc_7eydWXeOrxVZ-228" value="String Category" style="text;strokeColor=none;fillColor=none;spacingLeft=4;spacingRight=4;overflow=hidden;rotatable=0;points=[[0,0.5],[1,0.5]];portConstraint=eastwest;fontSize=12;whiteSpace=wrap;html=1;" parent="6pw_1wc_7eydWXeOrxVZ-225" vertex="1">
          <mxGeometry y="86" width="180" height="30" as="geometry" />
        </mxCell>
        <mxCell id="6pw_1wc_7eydWXeOrxVZ-229" value="int Stars" style="text;strokeColor=none;fillColor=none;spacingLeft=4;spacingRight=4;overflow=hidden;rotatable=0;points=[[0,0.5],[1,0.5]];portConstraint=eastwest;fontSize=12;whiteSpace=wrap;html=1;" parent="6pw_1wc_7eydWXeOrxVZ-225" vertex="1">
          <mxGeometry y="116" width="180" height="30" as="geometry" />
        </mxCell>
        <mxCell id="6pw_1wc_7eydWXeOrxVZ-230" value="String PriceRang" style="text;strokeColor=none;fillColor=none;spacingLeft=4;spacingRight=4;overflow=hidden;rotatable=0;points=[[0,0.5],[1,0.5]];portConstraint=eastwest;fontSize=12;whiteSpace=wrap;html=1;" parent="6pw_1wc_7eydWXeOrxVZ-225" vertex="1">
          <mxGeometry y="146" width="180" height="30" as="geometry" />
        </mxCell>
        <mxCell id="6pw_1wc_7eydWXeOrxVZ-232" value="Role" style="swimlane;fontStyle=0;childLayout=stackLayout;horizontal=1;startSize=26;horizontalStack=0;resizeParent=1;resizeParentMax=0;resizeLast=0;collapsible=1;marginBottom=0;align=center;fontSize=14;direction=east;absoluteArcSize=0;" parent="1" vertex="1">
          <mxGeometry x="480" y="-840" width="180" height="56" as="geometry">
            <mxRectangle x="80" y="40" width="60" height="30" as="alternateBounds" />
          </mxGeometry>
        </mxCell>
        <mxCell id="6pw_1wc_7eydWXeOrxVZ-233" value="String RolelName" style="text;strokeColor=none;fillColor=none;spacingLeft=4;spacingRight=4;overflow=hidden;rotatable=0;points=[[0,0.5],[1,0.5]];portConstraint=eastwest;fontSize=12;whiteSpace=wrap;html=1;" parent="6pw_1wc_7eydWXeOrxVZ-232" vertex="1">
          <mxGeometry y="26" width="180" height="30" as="geometry" />
        </mxCell>
        <mxCell id="6pw_1wc_7eydWXeOrxVZ-235" value="ShippingMethod" style="swimlane;fontStyle=0;childLayout=stackLayout;horizontal=1;startSize=26;horizontalStack=0;resizeParent=1;resizeParentMax=0;resizeLast=0;collapsible=1;marginBottom=0;align=center;fontSize=14;direction=east;absoluteArcSize=0;" parent="1" vertex="1">
          <mxGeometry x="280" y="-70" width="180" height="86" as="geometry">
            <mxRectangle x="80" y="40" width="60" height="30" as="alternateBounds" />
          </mxGeometry>
        </mxCell>
        <mxCell id="6pw_1wc_7eydWXeOrxVZ-236" value="int Id" style="text;strokeColor=none;fillColor=none;spacingLeft=4;spacingRight=4;overflow=hidden;rotatable=0;points=[[0,0.5],[1,0.5]];portConstraint=eastwest;fontSize=12;whiteSpace=wrap;html=1;" parent="6pw_1wc_7eydWXeOrxVZ-235" vertex="1">
          <mxGeometry y="26" width="180" height="30" as="geometry" />
        </mxCell>
        <mxCell id="6pw_1wc_7eydWXeOrxVZ-237" value="String Name" style="text;strokeColor=none;fillColor=none;spacingLeft=4;spacingRight=4;overflow=hidden;rotatable=0;points=[[0,0.5],[1,0.5]];portConstraint=eastwest;fontSize=12;whiteSpace=wrap;html=1;" parent="6pw_1wc_7eydWXeOrxVZ-235" vertex="1">
          <mxGeometry y="56" width="180" height="30" as="geometry" />
        </mxCell>
        <mxCell id="J-stulUpZThY6bfA50Kx-7" style="edgeStyle=orthogonalEdgeStyle;rounded=0;orthogonalLoop=1;jettySize=auto;html=1;entryX=0.5;entryY=0;entryDx=0;entryDy=0;endArrow=block;endFill=0;exitX=0.392;exitY=1.075;exitDx=0;exitDy=0;exitPerimeter=0;" edge="1" parent="1" source="6pw_1wc_7eydWXeOrxVZ-233">
          <mxGeometry relative="1" as="geometry">
            <mxPoint x="490" y="-770" as="sourcePoint" />
            <mxPoint x="410" y="-680" as="targetPoint" />
            <Array as="points">
              <mxPoint x="551" y="-740" />
              <mxPoint x="410" y="-740" />
            </Array>
          </mxGeometry>
        </mxCell>
        <mxCell id="J-stulUpZThY6bfA50Kx-8" value="is a" style="text;html=1;align=center;verticalAlign=middle;resizable=0;points=[];autosize=1;strokeColor=none;fillColor=none;" vertex="1" parent="1">
          <mxGeometry x="450" y="-734" width="40" height="30" as="geometry" />
        </mxCell>
        <mxCell id="J-stulUpZThY6bfA50Kx-9" value="1" style="text;html=1;align=center;verticalAlign=middle;resizable=0;points=[];autosize=1;strokeColor=none;fillColor=none;" vertex="1" parent="1">
          <mxGeometry x="520" y="-784" width="30" height="30" as="geometry" />
        </mxCell>
        <mxCell id="J-stulUpZThY6bfA50Kx-10" value="1...*" style="text;html=1;align=center;verticalAlign=middle;resizable=0;points=[];autosize=1;strokeColor=none;fillColor=none;" vertex="1" parent="1">
          <mxGeometry x="415" y="-704" width="40" height="30" as="geometry" />
        </mxCell>
        <mxCell id="J-stulUpZThY6bfA50Kx-11" style="edgeStyle=orthogonalEdgeStyle;rounded=0;orthogonalLoop=1;jettySize=auto;html=1;exitX=0.47;exitY=1.024;exitDx=0;exitDy=0;endArrow=none;endFill=0;entryX=0;entryY=0.5;entryDx=0;entryDy=0;exitPerimeter=0;" edge="1" parent="1" source="6pw_1wc_7eydWXeOrxVZ-180">
          <mxGeometry relative="1" as="geometry">
            <mxPoint x="121" y="-320" as="sourcePoint" />
            <mxPoint x="320" y="-477" as="targetPoint" />
            <Array as="points">
              <mxPoint x="121" y="-543" />
              <mxPoint x="121" y="-477" />
            </Array>
          </mxGeometry>
        </mxCell>
        <mxCell id="J-stulUpZThY6bfA50Kx-12" value="1" style="text;html=1;align=center;verticalAlign=middle;resizable=0;points=[];autosize=1;strokeColor=none;fillColor=none;" vertex="1" parent="1">
          <mxGeometry x="290" y="-505" width="30" height="30" as="geometry" />
        </mxCell>
        <mxCell id="J-stulUpZThY6bfA50Kx-13" value="1...*" style="text;html=1;align=center;verticalAlign=middle;resizable=0;points=[];autosize=1;strokeColor=none;fillColor=none;" vertex="1" parent="1">
          <mxGeometry x="120" y="-544" width="40" height="30" as="geometry" />
        </mxCell>
        <mxCell id="J-stulUpZThY6bfA50Kx-14" style="edgeStyle=orthogonalEdgeStyle;rounded=0;orthogonalLoop=1;jettySize=auto;html=1;exitX=0.5;exitY=1;exitDx=0;exitDy=0;entryX=0.439;entryY=0.005;entryDx=0;entryDy=0;endArrow=none;endFill=0;startArrow=diamondThin;startFill=1;entryPerimeter=0;" edge="1" parent="1" target="6pw_1wc_7eydWXeOrxVZ-195">
          <mxGeometry relative="1" as="geometry">
            <mxPoint x="120" y="-244" as="sourcePoint" />
            <mxPoint x="120" y="-174" as="targetPoint" />
          </mxGeometry>
        </mxCell>
        <mxCell id="J-stulUpZThY6bfA50Kx-15" value="has a" style="text;html=1;align=center;verticalAlign=middle;resizable=0;points=[];autosize=1;strokeColor=none;fillColor=none;" vertex="1" parent="1">
          <mxGeometry x="115" y="-219" width="50" height="30" as="geometry" />
        </mxCell>
        <mxCell id="J-stulUpZThY6bfA50Kx-16" value="1" style="text;html=1;align=center;verticalAlign=middle;resizable=0;points=[];autosize=1;strokeColor=none;fillColor=none;" vertex="1" parent="1">
          <mxGeometry x="120" y="-244" width="30" height="30" as="geometry" />
        </mxCell>
        <mxCell id="J-stulUpZThY6bfA50Kx-17" value="1...*" style="text;html=1;align=center;verticalAlign=middle;resizable=0;points=[];autosize=1;strokeColor=none;fillColor=none;" vertex="1" parent="1">
          <mxGeometry x="120" y="-190" width="40" height="30" as="geometry" />
        </mxCell>
        <mxCell id="J-stulUpZThY6bfA50Kx-18" style="edgeStyle=orthogonalEdgeStyle;rounded=0;orthogonalLoop=1;jettySize=auto;html=1;exitX=0.5;exitY=0;exitDx=0;exitDy=0;entryX=1.025;entryY=0.091;entryDx=0;entryDy=0;endArrow=none;endFill=0;entryPerimeter=0;" edge="1" parent="1" target="J-stulUpZThY6bfA50Kx-19">
          <mxGeometry relative="1" as="geometry">
            <mxPoint x="261" y="-430" as="targetPoint" />
            <mxPoint x="220" y="-330" as="sourcePoint" />
            <Array as="points">
              <mxPoint x="290" y="-330" />
              <mxPoint x="290" y="-400" />
              <mxPoint x="350" y="-400" />
              <mxPoint x="350" y="-444" />
            </Array>
          </mxGeometry>
        </mxCell>
        <mxCell id="J-stulUpZThY6bfA50Kx-19" value="1" style="text;html=1;align=center;verticalAlign=middle;resizable=0;points=[];autosize=1;strokeColor=none;fillColor=none;" vertex="1" parent="1">
          <mxGeometry x="320" y="-447" width="30" height="30" as="geometry" />
        </mxCell>
        <mxCell id="J-stulUpZThY6bfA50Kx-20" value="1...*" style="text;html=1;align=center;verticalAlign=middle;resizable=0;points=[];autosize=1;strokeColor=none;fillColor=none;" vertex="1" parent="1">
          <mxGeometry x="220" y="-360" width="40" height="30" as="geometry" />
        </mxCell>
        <mxCell id="J-stulUpZThY6bfA50Kx-21" style="edgeStyle=orthogonalEdgeStyle;rounded=0;orthogonalLoop=1;jettySize=auto;html=1;exitX=0.053;exitY=0.004;exitDx=0;exitDy=0;entryX=0.991;entryY=0.244;entryDx=0;entryDy=0;entryPerimeter=0;endArrow=none;endFill=0;exitPerimeter=0;" edge="1" parent="1" source="6pw_1wc_7eydWXeOrxVZ-235" target="6pw_1wc_7eydWXeOrxVZ-197">
          <mxGeometry relative="1" as="geometry">
            <mxPoint x="440" y="-72" as="sourcePoint" />
            <mxPoint x="399" y="-72" as="targetPoint" />
          </mxGeometry>
        </mxCell>
        <mxCell id="J-stulUpZThY6bfA50Kx-22" style="edgeStyle=orthogonalEdgeStyle;rounded=0;orthogonalLoop=1;jettySize=auto;html=1;exitX=0.437;exitY=0.939;exitDx=0;exitDy=0;entryX=0.459;entryY=1.057;entryDx=0;entryDy=0;endArrow=none;endFill=0;startArrow=diamondThin;startFill=0;entryPerimeter=0;exitPerimeter=0;" edge="1" parent="1" source="6pw_1wc_7eydWXeOrxVZ-148" target="6pw_1wc_7eydWXeOrxVZ-204">
          <mxGeometry relative="1" as="geometry">
            <mxPoint x="640" y="-189" as="sourcePoint" />
            <mxPoint x="520" y="-119" as="targetPoint" />
            <Array as="points">
              <mxPoint x="649" y="-140" />
              <mxPoint x="403" y="-140" />
            </Array>
          </mxGeometry>
        </mxCell>
        <mxCell id="J-stulUpZThY6bfA50Kx-23" value="has a" style="edgeLabel;html=1;align=center;verticalAlign=middle;resizable=0;points=[];" vertex="1" connectable="0" parent="J-stulUpZThY6bfA50Kx-22">
          <mxGeometry x="-0.0556" y="4" relative="1" as="geometry">
            <mxPoint x="4" y="-9" as="offset" />
          </mxGeometry>
        </mxCell>
        <mxCell id="J-stulUpZThY6bfA50Kx-24" value="1" style="text;html=1;align=center;verticalAlign=middle;resizable=0;points=[];autosize=1;strokeColor=none;fillColor=none;" vertex="1" parent="1">
          <mxGeometry x="620" y="-220" width="30" height="30" as="geometry" />
        </mxCell>
        <mxCell id="J-stulUpZThY6bfA50Kx-25" value="1...*" style="text;html=1;align=center;verticalAlign=middle;resizable=0;points=[];autosize=1;strokeColor=none;fillColor=none;" vertex="1" parent="1">
          <mxGeometry x="400" y="-174" width="40" height="30" as="geometry" />
        </mxCell>
        <mxCell id="J-stulUpZThY6bfA50Kx-26" style="edgeStyle=orthogonalEdgeStyle;rounded=0;orthogonalLoop=1;jettySize=auto;html=1;entryX=1.01;entryY=0.628;entryDx=0;entryDy=0;entryPerimeter=0;endArrow=diamondThin;endFill=1;exitX=-0.002;exitY=0.203;exitDx=0;exitDy=0;exitPerimeter=0;" edge="1" parent="1" source="6pw_1wc_7eydWXeOrxVZ-213" target="6pw_1wc_7eydWXeOrxVZ-157">
          <mxGeometry relative="1" as="geometry">
            <mxPoint x="790" y="-512" as="sourcePoint" />
            <mxPoint x="530" y="-526" as="targetPoint" />
          </mxGeometry>
        </mxCell>
        <mxCell id="J-stulUpZThY6bfA50Kx-27" value="has a" style="text;html=1;align=center;verticalAlign=middle;resizable=0;points=[];autosize=1;strokeColor=none;fillColor=none;" vertex="1" parent="1">
          <mxGeometry x="520" y="-574" width="50" height="30" as="geometry" />
        </mxCell>
        <mxCell id="J-stulUpZThY6bfA50Kx-28" value="1" style="text;html=1;align=center;verticalAlign=middle;resizable=0;points=[];autosize=1;strokeColor=none;fillColor=none;" vertex="1" parent="1">
          <mxGeometry x="500" y="-544" width="30" height="30" as="geometry" />
        </mxCell>
        <mxCell id="J-stulUpZThY6bfA50Kx-29" value="1...*" style="text;html=1;align=center;verticalAlign=middle;resizable=0;points=[];autosize=1;strokeColor=none;fillColor=none;" vertex="1" parent="1">
          <mxGeometry x="570" y="-514" width="40" height="30" as="geometry" />
        </mxCell>
        <mxCell id="J-stulUpZThY6bfA50Kx-30" style="edgeStyle=orthogonalEdgeStyle;rounded=0;orthogonalLoop=1;jettySize=auto;html=1;entryX=-0.011;entryY=0.747;entryDx=0;entryDy=0;endArrow=diamondThin;endFill=1;exitX=1;exitY=0.5;exitDx=0;exitDy=0;entryPerimeter=0;" edge="1" parent="1" source="6pw_1wc_7eydWXeOrxVZ-213" target="6pw_1wc_7eydWXeOrxVZ-135">
          <mxGeometry relative="1" as="geometry">
            <mxPoint x="910" y="-460" as="sourcePoint" />
            <mxPoint x="850" y="-390" as="targetPoint" />
          </mxGeometry>
        </mxCell>
        <mxCell id="J-stulUpZThY6bfA50Kx-31" value="has a" style="text;html=1;align=center;verticalAlign=middle;resizable=0;points=[];autosize=1;strokeColor=none;fillColor=none;" vertex="1" parent="1">
          <mxGeometry x="850" y="-450" width="50" height="30" as="geometry" />
        </mxCell>
        <mxCell id="J-stulUpZThY6bfA50Kx-32" style="edgeStyle=orthogonalEdgeStyle;rounded=0;orthogonalLoop=1;jettySize=auto;html=1;endArrow=diamondThin;endFill=1;exitX=0.352;exitY=-0.016;exitDx=0;exitDy=0;exitPerimeter=0;" edge="1" parent="1" source="6pw_1wc_7eydWXeOrxVZ-132">
          <mxGeometry relative="1" as="geometry">
            <mxPoint x="930" y="-494" as="sourcePoint" />
            <mxPoint x="1010" y="-621" as="targetPoint" />
          </mxGeometry>
        </mxCell>
        <mxCell id="J-stulUpZThY6bfA50Kx-33" value="1" style="text;html=1;align=center;verticalAlign=middle;resizable=0;points=[];autosize=1;strokeColor=none;fillColor=none;" vertex="1" parent="1">
          <mxGeometry x="1010" y="-632" width="30" height="30" as="geometry" />
        </mxCell>
        <mxCell id="J-stulUpZThY6bfA50Kx-34" value="1...*" style="text;html=1;align=center;verticalAlign=middle;resizable=0;points=[];autosize=1;strokeColor=none;fillColor=none;" vertex="1" parent="1">
          <mxGeometry x="980" y="-544" width="40" height="30" as="geometry" />
        </mxCell>
        <mxCell id="J-stulUpZThY6bfA50Kx-37" style="edgeStyle=orthogonalEdgeStyle;rounded=0;orthogonalLoop=1;jettySize=auto;html=1;exitX=0;exitY=0.5;exitDx=0;exitDy=0;entryX=1;entryY=0.5;entryDx=0;entryDy=0;endArrow=none;endFill=0;" edge="1" parent="1" source="6pw_1wc_7eydWXeOrxVZ-202" target="6pw_1wc_7eydWXeOrxVZ-192">
          <mxGeometry relative="1" as="geometry" />
        </mxCell>
      </root>
    </mxGraphModel>
  </diagram>
</mxfile>
